<svg width="32" height="32" viewBox="0 0 32 32" fill="none" xmlns="http://www.w3.org/2000/svg">
<path d="M5.09752 25.5258C5.09752 26.2091 4.84623 26.7982 4.34366 27.2931C3.84109 27.7644 3.23082 28 2.51286 28C1.81883 28 1.22053 27.7644 0.717961 27.2931C0.23932 26.7982 0 26.2091 0 25.5258V6.47423C0 5.79087 0.251286 5.21355 0.753859 4.74227C1.25643 4.24742 1.8667 4 2.58466 4C3.27869 4 3.86502 4.24742 4.34366 4.74227C4.84623 5.21355 5.09752 5.79087 5.09752 6.47423V25.5258Z" fill="white"/>
<path d="M32 16.0177C32 17.785 31.6889 19.3991 31.0667 20.8601C30.4444 22.2975 29.5709 23.5346 28.4461 24.5714C27.3452 25.5847 26.005 26.3741 24.4255 26.9396C22.8699 27.5052 21.1588 27.7879 19.2921 27.7879H12.7228C11.933 27.7879 11.2509 27.5169 10.6766 26.975C10.1261 26.4094 9.85092 25.7378 9.85092 24.9602V7.03977C9.85092 6.26215 10.1261 5.60236 10.6766 5.06038C11.2509 4.49485 11.933 4.21208 12.7228 4.21208H19.2921C21.1588 4.21208 22.8699 4.49485 24.4255 5.06038C26.005 5.62592 27.3452 6.4271 28.4461 7.46392C29.5709 8.47717 30.4444 9.71429 31.0667 11.1753C31.6889 12.6362 32 14.2504 32 16.0177ZM26.7948 16.0177C26.7948 14.9809 26.6273 14.0147 26.2922 13.1193C25.9811 12.2003 25.5144 11.4109 24.8922 10.7511C24.27 10.0913 23.4802 9.5729 22.5229 9.19588C21.5896 8.81885 20.5126 8.63034 19.2921 8.63034H14.9484V23.3697H19.2921C20.4648 23.3697 21.5178 23.1811 22.4511 22.8041C23.3845 22.4035 24.1742 21.8733 24.8204 21.2135C25.4666 20.5302 25.9572 19.7408 26.2922 18.8454C26.6273 17.9499 26.7948 17.0074 26.7948 16.0177Z" fill="white"/>
</svg>
